<svg width="87" height="26" viewBox="0 0 87 26" fill="none" xmlns="http://www.w3.org/2000/svg">
<line x1="2" y1="5" x2="2" y2="21" stroke="url(#paint0_linear_4_520)" stroke-width="4" stroke-linecap="round"/>
<line x1="12" y1="7" x2="12" y2="19" stroke="url(#paint1_linear_4_520)" stroke-width="4" stroke-linecap="round"/>
<line x1="22" y1="9" x2="22" y2="17" stroke="url(#paint2_linear_4_520)" stroke-width="4" stroke-linecap="round"/>
<path d="M40.0332 5.35938H43.2451V15.6934C43.2451 16.8965 42.9873 17.9098 42.4717 18.7334C41.9632 19.557 41.2578 20.1764 40.3555 20.5918C39.4603 21.0072 38.429 21.2148 37.2617 21.2148C36.0944 21.2148 35.056 21.0072 34.1465 20.5918C33.2441 20.1764 32.5352 19.557 32.0195 18.7334C31.5111 17.9098 31.2568 16.8965 31.2568 15.6934V5.35938H34.4795V15.6934C34.4795 16.3952 34.5905 16.9681 34.8125 17.4121C35.0345 17.8561 35.3532 18.182 35.7686 18.3896C36.1911 18.5973 36.6888 18.7012 37.2617 18.7012C37.849 18.7012 38.3467 18.5973 38.7549 18.3896C39.1702 18.182 39.4854 17.8561 39.7002 17.4121C39.9222 16.9681 40.0332 16.3952 40.0332 15.6934V5.35938ZM54.9648 15.8115H58.1768C58.1123 16.8643 57.8223 17.7988 57.3066 18.6152C56.7982 19.4316 56.0856 20.069 55.1689 20.5273C54.2594 20.9857 53.1637 21.2148 51.8818 21.2148C50.8792 21.2148 49.9805 21.043 49.1855 20.6992C48.3906 20.3483 47.7103 19.847 47.1445 19.1953C46.5859 18.5436 46.1598 17.7559 45.8662 16.832C45.5726 15.9082 45.4258 14.8734 45.4258 13.7275V12.6426C45.4258 11.4967 45.5762 10.4619 45.877 9.53809C46.1849 8.6071 46.6217 7.81576 47.1875 7.16406C47.7604 6.51237 48.4443 6.01107 49.2393 5.66016C50.0342 5.30924 50.9222 5.13379 51.9033 5.13379C53.2067 5.13379 54.306 5.37012 55.2012 5.84277C56.1035 6.31543 56.8018 6.96712 57.2959 7.79785C57.7972 8.62858 58.098 9.57389 58.1982 10.6338H54.9756C54.9398 10.0036 54.8145 9.47005 54.5996 9.0332C54.3848 8.58919 54.0589 8.25618 53.6221 8.03418C53.1924 7.80501 52.6195 7.69043 51.9033 7.69043C51.3662 7.69043 50.8971 7.79069 50.4961 7.99121C50.0951 8.19173 49.7585 8.49609 49.4863 8.9043C49.2142 9.3125 49.0101 9.82812 48.874 10.4512C48.7451 11.0671 48.6807 11.7904 48.6807 12.6211V13.7275C48.6807 14.5368 48.7415 15.2493 48.8633 15.8652C48.985 16.474 49.1712 16.9896 49.4219 17.4121C49.6797 17.8275 50.0091 18.1426 50.4102 18.3574C50.8184 18.5651 51.3089 18.6689 51.8818 18.6689C52.555 18.6689 53.11 18.5615 53.5469 18.3467C53.9837 18.1318 54.3167 17.8132 54.5459 17.3906C54.7822 16.9681 54.9219 16.4417 54.9648 15.8115ZM68.4355 16.9072C68.4355 16.6279 68.3926 16.3773 68.3066 16.1553C68.2279 15.9261 68.0775 15.7184 67.8555 15.5322C67.6335 15.3389 67.3219 15.1491 66.9209 14.9629C66.5199 14.7767 66.0007 14.5833 65.3633 14.3828C64.6543 14.1536 63.9811 13.8958 63.3438 13.6094C62.7135 13.3229 62.1549 12.9899 61.668 12.6104C61.1882 12.2236 60.8086 11.776 60.5293 11.2676C60.2572 10.7591 60.1211 10.1683 60.1211 9.49512C60.1211 8.84342 60.2643 8.2526 60.5508 7.72266C60.8372 7.18555 61.2383 6.72721 61.7539 6.34766C62.2695 5.96094 62.8783 5.66374 63.5801 5.45605C64.2891 5.24837 65.0661 5.14453 65.9111 5.14453C67.0641 5.14453 68.0703 5.35221 68.9297 5.76758C69.7891 6.18294 70.4551 6.75228 70.9277 7.47559C71.4076 8.19889 71.6475 9.02604 71.6475 9.95703H68.4463C68.4463 9.4987 68.3496 9.09766 68.1562 8.75391C67.9701 8.40299 67.6836 8.12728 67.2969 7.92676C66.9173 7.72624 66.4375 7.62598 65.8574 7.62598C65.2988 7.62598 64.8333 7.71191 64.4609 7.88379C64.0885 8.0485 63.8092 8.27409 63.623 8.56055C63.4368 8.83984 63.3438 9.15495 63.3438 9.50586C63.3438 9.77083 63.4082 10.0107 63.5371 10.2256C63.6732 10.4404 63.8737 10.641 64.1387 10.8271C64.4036 11.0133 64.7295 11.1888 65.1162 11.3535C65.5029 11.5182 65.9505 11.6794 66.459 11.8369C67.3112 12.0947 68.0596 12.3848 68.7041 12.707C69.3558 13.0293 69.9001 13.391 70.3369 13.792C70.7738 14.193 71.1032 14.6478 71.3252 15.1562C71.5472 15.6647 71.6582 16.2412 71.6582 16.8857C71.6582 17.5661 71.5257 18.1748 71.2607 18.7119C70.9958 19.249 70.6126 19.7038 70.1113 20.0762C69.61 20.4486 69.012 20.7314 68.3174 20.9248C67.6227 21.1182 66.8457 21.2148 65.9863 21.2148C65.2129 21.2148 64.4502 21.1146 63.6982 20.9141C62.9463 20.7064 62.2624 20.3949 61.6465 19.9795C61.0378 19.5641 60.5508 19.0342 60.1855 18.3896C59.8203 17.7451 59.6377 16.9824 59.6377 16.1016H62.8711C62.8711 16.5885 62.9463 17.0003 63.0967 17.3369C63.2471 17.6735 63.4583 17.9456 63.7305 18.1533C64.0098 18.361 64.3392 18.5114 64.7188 18.6045C65.1055 18.6976 65.528 18.7441 65.9863 18.7441C66.5449 18.7441 67.0033 18.6654 67.3613 18.5078C67.7266 18.3503 67.9951 18.1318 68.167 17.8525C68.346 17.5732 68.4355 17.2581 68.4355 16.9072ZM82.916 15.8115H86.1279C86.0635 16.8643 85.7734 17.7988 85.2578 18.6152C84.7493 19.4316 84.0368 20.069 83.1201 20.5273C82.2106 20.9857 81.1149 21.2148 79.833 21.2148C78.8304 21.2148 77.9316 21.043 77.1367 20.6992C76.3418 20.3483 75.6615 19.847 75.0957 19.1953C74.5371 18.5436 74.111 17.7559 73.8174 16.832C73.5238 15.9082 73.377 14.8734 73.377 13.7275V12.6426C73.377 11.4967 73.5273 10.4619 73.8281 9.53809C74.1361 8.6071 74.5729 7.81576 75.1387 7.16406C75.7116 6.51237 76.3955 6.01107 77.1904 5.66016C77.9854 5.30924 78.8734 5.13379 79.8545 5.13379C81.1579 5.13379 82.2572 5.37012 83.1523 5.84277C84.0547 6.31543 84.7529 6.96712 85.2471 7.79785C85.7484 8.62858 86.0492 9.57389 86.1494 10.6338H82.9268C82.891 10.0036 82.7656 9.47005 82.5508 9.0332C82.3359 8.58919 82.0101 8.25618 81.5732 8.03418C81.1436 7.80501 80.5706 7.69043 79.8545 7.69043C79.3174 7.69043 78.8483 7.79069 78.4473 7.99121C78.0462 8.19173 77.7096 8.49609 77.4375 8.9043C77.1654 9.3125 76.9613 9.82812 76.8252 10.4512C76.6963 11.0671 76.6318 11.7904 76.6318 12.6211V13.7275C76.6318 14.5368 76.6927 15.2493 76.8145 15.8652C76.9362 16.474 77.1224 16.9896 77.373 17.4121C77.6309 17.8275 77.9603 18.1426 78.3613 18.3574C78.7695 18.5651 79.2601 18.6689 79.833 18.6689C80.5062 18.6689 81.0612 18.5615 81.498 18.3467C81.9349 18.1318 82.2679 17.8132 82.4971 17.3906C82.7334 16.9681 82.873 16.4417 82.916 15.8115Z" fill="white"/>
<defs>
<linearGradient id="paint0_linear_4_520" x1="-0.5" y1="3" x2="-0.5" y2="23" gradientUnits="userSpaceOnUse">
<stop stop-color="#EC008C"/>
<stop offset="1" stop-color="#FC6767"/>
</linearGradient>
<linearGradient id="paint1_linear_4_520" x1="9.5" y1="5" x2="9.5" y2="21" gradientUnits="userSpaceOnUse">
<stop stop-color="#E65C00"/>
<stop offset="1" stop-color="#F9D423"/>
</linearGradient>
<linearGradient id="paint2_linear_4_520" x1="19.5" y1="7" x2="19.5" y2="19" gradientUnits="userSpaceOnUse">
<stop stop-color="#00D2FF"/>
<stop offset="1" stop-color="#3A7BD5"/>
</linearGradient>
</defs>
</svg>
