<svg width="418" height="486" viewBox="0 0 418 486" fill="none" xmlns="http://www.w3.org/2000/svg">
<path opacity="0.1" d="M84.7549 181.576L71.1501 188.136L197.418 450.016L211.022 443.457L84.7549 181.576Z" fill="url(#paint0_linear_2_313)"/>
<path opacity="0.1" d="M116.189 158.721L89.3074 171.682L194.299 389.435L221.18 376.474L116.189 158.721Z" fill="url(#paint1_linear_2_313)"/>
<path opacity="0.1" d="M220.232 108.556L198.038 119.257L314.74 361.3L336.935 350.599L220.232 108.556Z" fill="url(#paint2_linear_2_313)"/>
<path opacity="0.1" d="M248.597 107.24L234.988 113.802L358.268 369.487L371.878 362.925L248.597 107.24Z" fill="url(#paint3_linear_2_313)"/>
<path d="M288.553 355.496L249.891 374.137L259.045 392.908C260.419 395.757 263.667 397.702 268.456 398.062C278.03 398.777 290.322 392.85 295.768 384.893C298.494 380.916 298.999 377.161 297.623 374.307L297.698 374.271L288.553 355.496Z" fill="white"/>
<path d="M297.055 371.665L285.994 318.679C278.653 283.509 268.17 249.033 254.13 215.961C253.196 213.771 252.272 211.617 251.344 209.5C228.078 156.358 191.403 110.171 145.483 74.7207L121.74 56.3943L119.842 57.3094L119.394 87.2998C118.53 145.308 131.833 202.763 158.919 254.064C160.002 256.106 161.103 258.174 162.243 260.264C179.372 291.848 199.818 321.519 222.765 349.165L257.338 390.815L297.055 371.665Z" fill="white"/>
<path d="M181.984 287.874L158.705 341.632L198.303 473.485L244.826 371.826L185.999 289.277L181.984 287.874Z" fill="#9EB1D8"/>
<path d="M185.999 289.277L162.72 343.035L198.303 473.486L248.841 373.229L185.999 289.277Z" fill="url(#paint4_linear_2_313)"/>
<path d="M262.557 249.025L319.115 264.288L397.62 377.383L289.103 350.478L261.15 253.042L262.557 249.025Z" fill="#9EB1D8"/>
<path d="M261.15 253.042L317.718 268.301L397.62 377.384L287.706 354.491L261.15 253.042Z" fill="url(#paint5_linear_2_313)"/>
<path d="M178.294 103.444C167.981 93.2317 157.024 83.6361 145.478 74.7231L121.735 56.3967L119.837 57.3118L119.389 87.3022C119.17 101.905 119.856 116.47 121.426 130.915C141.713 127.47 162.948 117.22 178.294 103.444Z" fill="url(#paint6_linear_2_313)"/>
<path d="M171.98 273.821C171.201 273.763 170.468 273.655 169.727 273.556C170.955 275.673 172.214 277.769 173.473 279.865C189.169 280.602 206.76 276.332 222.764 268.615C238.81 260.878 253.188 249.718 262.441 236.899C261.585 234.609 260.731 232.311 259.84 230.032C259.428 230.71 259.032 231.386 258.561 232.075C241.248 257.358 202.414 276.088 171.98 273.821Z" fill="#4A65A3"/>
<path d="M210.286 179.762C214.398 192.71 207.666 206.601 195.754 212.345C183.841 218.089 168.788 214.708 161.21 203.425C152.387 190.288 156.837 171.797 172.55 164.22C188.264 156.644 205.505 164.682 210.286 179.762Z" fill="#4A65A3"/>
<path d="M205.935 181.185C209.354 191.978 203.752 203.551 193.822 208.339C183.896 213.124 171.343 210.305 165.033 200.906C157.686 189.957 161.386 174.548 174.484 168.232C187.583 161.917 201.946 168.611 205.935 181.185Z" fill="#A5CBEF"/>
<path d="M174.583 168.185L163.847 198.914C164.2 199.587 164.595 200.251 165.026 200.904C167.744 204.948 171.615 207.766 175.932 209.294L190.83 166.664C185.766 165.253 180.07 165.574 174.583 168.185Z" fill="#C9E0F5"/>
<path d="M198.925 170.875C197.511 169.715 195.952 168.734 194.294 167.956L179.518 210.238C181.34 210.567 183.2 210.675 185.056 210.572L198.925 170.875Z" fill="#C9E0F5"/>
<path d="M293.627 355.261C293.139 357.53 292.064 359.937 290.383 362.394C282.637 373.712 265.251 382.095 251.622 381.083C250.683 381.015 249.801 380.886 248.947 380.732L251.733 384.091C258.937 384.55 267.093 382.599 274.484 379.035C281.996 375.413 288.713 370.142 292.858 364.088C293.614 362.984 294.228 361.886 294.776 360.795L293.627 355.261Z" fill="#4A65A3"/>
<path opacity="0.4" d="M260.262 133.434C244.988 133.955 227.524 137.159 209.513 142.713L211.039 144.715C228.355 139.456 245.106 136.428 259.775 135.922C285.831 135.026 303.725 141.889 310.167 155.25C316.609 168.611 310.836 186.886 293.908 206.715C258.387 248.308 185.23 283.587 130.817 285.35C104.883 286.187 87.0596 279.29 80.6175 265.929C74.1732 252.563 79.8805 234.321 96.6837 214.558C105.934 203.675 118.343 192.719 132.791 182.651L132.558 179.939C117.284 190.439 104.16 201.948 94.4293 213.392C76.9255 233.978 71.0449 253.107 77.8666 267.255C84.6882 281.404 103.317 288.715 130.323 287.835C157.987 286.944 190.418 277.528 220.448 263.048C250.474 248.571 278.102 229.024 296.158 207.882C313.788 187.235 319.739 168.072 312.918 153.924C306.101 139.774 287.401 132.496 260.262 133.434Z" fill="url(#paint7_linear_2_313)"/>
<path d="M86.3921 278.745C89.7464 277.128 91.1545 273.098 89.5372 269.743C87.9199 266.389 83.8896 264.981 80.5352 266.598C77.1809 268.215 75.7728 272.246 77.3901 275.6C79.0074 278.954 83.0377 280.363 86.3921 278.745Z" fill="url(#paint8_linear_2_313)"/>
<path d="M146.355 290.005C148.876 288.789 149.934 285.76 148.719 283.24C147.503 280.719 144.474 279.66 141.953 280.876C139.433 282.091 138.374 285.12 139.59 287.641C140.805 290.162 143.834 291.22 146.355 290.005Z" fill="url(#paint9_linear_2_313)"/>
<path d="M248.258 250.143C249.891 249.355 250.577 247.393 249.789 245.76C249.002 244.127 247.039 243.441 245.406 244.229C243.773 245.016 243.088 246.978 243.875 248.611C244.663 250.245 246.625 250.93 248.258 250.143Z" fill="url(#paint10_linear_2_313)"/>
<path opacity="0.4" d="M227.892 107.352C215.514 107.781 201.359 110.373 186.778 114.873L188.012 116.496C202.037 112.235 215.611 109.779 227.498 109.373C248.604 108.646 263.107 114.204 268.327 125.03C273.547 135.855 268.864 150.664 255.15 166.725C226.377 200.427 167.104 229.006 123.018 230.434C102.014 231.112 87.5602 225.524 82.3406 214.698C77.1187 203.868 81.7477 189.091 95.3603 173.073C102.859 164.259 112.913 155.379 124.614 147.219L124.427 145.022C112.051 153.531 101.415 162.858 93.5356 172.127C79.3527 188.808 74.5853 204.304 80.1145 215.772C85.6437 227.239 100.735 233.155 122.619 232.446C145.033 231.723 171.309 224.096 195.636 212.367C219.963 200.637 242.348 184.796 256.98 167.668C271.261 150.94 276.08 135.419 270.551 123.951C265.022 112.484 249.874 106.595 227.892 107.352Z" fill="url(#paint11_linear_2_313)"/>
<path d="M134.448 235.539C137.166 234.229 138.307 230.963 136.996 228.246C135.686 225.528 132.421 224.387 129.703 225.697C126.985 227.008 125.844 230.273 127.155 232.991C128.465 235.708 131.73 236.849 134.448 235.539Z" fill="url(#paint12_linear_2_313)"/>
<path d="M226.913 198.315C228.955 197.331 229.812 194.877 228.827 192.835C227.843 190.793 225.389 189.936 223.347 190.92C221.305 191.905 220.448 194.358 221.432 196.401C222.417 198.443 224.87 199.3 226.913 198.315Z" fill="url(#paint13_linear_2_313)"/>
<path d="M269.418 150.426C270.741 149.788 271.296 148.199 270.659 146.876C270.021 145.554 268.432 144.999 267.109 145.636C265.787 146.274 265.232 147.863 265.869 149.186C266.507 150.508 268.096 151.063 269.418 150.426Z" fill="url(#paint14_linear_2_313)"/>
<path d="M336.371 267.687C337.012 267.377 337.282 266.606 336.972 265.964C336.663 265.322 335.892 265.053 335.25 265.362C334.608 265.672 334.338 266.443 334.648 267.085C334.957 267.727 335.729 267.996 336.371 267.687Z" fill="#FFC107"/>
<path d="M213.371 125.657C214.013 125.347 214.283 124.576 213.973 123.934C213.664 123.292 212.893 123.023 212.251 123.332C211.609 123.642 211.339 124.413 211.649 125.055C211.958 125.697 212.73 125.966 213.371 125.657Z" fill="#FFC107"/>
<path d="M296.751 165.196C297.393 164.886 297.662 164.115 297.353 163.473C297.043 162.831 296.272 162.562 295.63 162.871C294.988 163.181 294.719 163.952 295.028 164.594C295.338 165.236 296.109 165.505 296.751 165.196Z" fill="#FFC107"/>
<path d="M227.896 462.087C228.54 461.776 228.811 461.002 228.5 460.358C228.189 459.713 227.415 459.442 226.77 459.753C226.126 460.064 225.855 460.838 226.166 461.483C226.477 462.127 227.251 462.398 227.896 462.087Z" fill="#FFC107"/>
<path d="M285.771 239.263C286.413 238.954 286.682 238.183 286.373 237.541C286.063 236.899 285.292 236.629 284.65 236.939C284.008 237.248 283.739 238.02 284.048 238.661C284.358 239.303 285.129 239.573 285.771 239.263Z" fill="#FFC107"/>
<path d="M297.682 199.986C298.324 199.676 298.593 198.905 298.284 198.263C297.974 197.622 297.203 197.352 296.561 197.662C295.919 197.971 295.65 198.742 295.959 199.384C296.269 200.026 297.04 200.295 297.682 199.986Z" fill="#FFC107"/>
<path d="M341.517 388.462C342.159 388.153 342.428 387.382 342.119 386.74C341.809 386.098 341.038 385.829 340.396 386.138C339.754 386.448 339.485 387.219 339.794 387.861C340.104 388.502 340.875 388.772 341.517 388.462Z" fill="#FFC107"/>
<path d="M296.818 329.251C297.462 328.94 297.733 328.166 297.422 327.521C297.112 326.877 296.337 326.606 295.693 326.917C295.048 327.228 294.778 328.002 295.089 328.647C295.399 329.291 296.174 329.562 296.818 329.251Z" fill="#FFC107"/>
<path d="M255.727 179.923C256.369 179.613 256.639 178.842 256.329 178.2C256.02 177.558 255.248 177.289 254.606 177.598C253.965 177.908 253.695 178.679 254.005 179.321C254.314 179.963 255.085 180.232 255.727 179.923Z" fill="#FFC107"/>
<path d="M187.709 321.466C188.354 321.155 188.624 320.381 188.313 319.736C188.003 319.092 187.228 318.821 186.584 319.132C185.94 319.443 185.669 320.217 185.98 320.862C186.29 321.506 187.065 321.776 187.709 321.466Z" fill="#FFC107"/>
<path d="M232.066 124.908C232.708 124.599 232.977 123.827 232.668 123.186C232.358 122.544 231.587 122.274 230.945 122.584C230.303 122.893 230.034 123.664 230.343 124.306C230.653 124.948 231.424 125.218 232.066 124.908Z" fill="#FFC107"/>
<path d="M104.327 251.494C104.969 251.185 105.238 250.413 104.929 249.772C104.619 249.13 103.848 248.86 103.206 249.17C102.564 249.479 102.295 250.25 102.604 250.892C102.914 251.534 103.685 251.804 104.327 251.494Z" fill="#FFC107"/>
<path d="M199.818 419.979C200.459 419.67 200.729 418.899 200.42 418.257C200.11 417.615 199.339 417.345 198.697 417.655C198.055 417.964 197.786 418.736 198.095 419.377C198.405 420.019 199.176 420.289 199.818 419.979Z" fill="#FFC107"/>
<path d="M337.049 360.329C337.691 360.019 337.96 359.248 337.65 358.606C337.341 357.965 336.57 357.695 335.928 358.004C335.286 358.314 335.017 359.085 335.326 359.727C335.636 360.369 336.407 360.638 337.049 360.329Z" fill="#FFC107"/>
<path d="M126.201 213.831C126.842 213.521 127.112 212.75 126.802 212.108C126.493 211.466 125.722 211.197 125.08 211.506C124.438 211.816 124.168 212.587 124.478 213.229C124.787 213.871 125.559 214.14 126.201 213.831Z" fill="#FFC107"/>
<path d="M134.322 344.336C134.964 344.026 135.234 343.255 134.924 342.613C134.615 341.971 133.843 341.702 133.202 342.011C132.56 342.321 132.29 343.092 132.6 343.734C132.909 344.376 133.68 344.645 134.322 344.336Z" fill="#FFC107"/>
<path d="M118.271 166.849C118.913 166.539 119.182 165.768 118.873 165.126C118.563 164.484 117.792 164.215 117.15 164.524C116.508 164.834 116.239 165.605 116.548 166.247C116.858 166.889 117.629 167.158 118.271 166.849Z" fill="#FFC107"/>
<path d="M155.343 281.849C155.985 281.539 156.255 280.768 155.945 280.126C155.636 279.484 154.865 279.215 154.223 279.524C153.581 279.834 153.311 280.605 153.621 281.247C153.93 281.889 154.702 282.158 155.343 281.849Z" fill="#FFC107"/>
<path d="M320.953 323.758C321.297 323.592 321.442 323.179 321.276 322.835C321.11 322.49 320.696 322.346 320.352 322.512C320.008 322.678 319.864 323.091 320.03 323.436C320.195 323.78 320.609 323.924 320.953 323.758Z" fill="#FFC107"/>
<path d="M378.647 364.94C378.992 364.774 379.136 364.36 378.97 364.016C378.804 363.672 378.391 363.527 378.046 363.693C377.702 363.859 377.558 364.273 377.724 364.617C377.89 364.961 378.303 365.106 378.647 364.94Z" fill="#FFC107"/>
<path d="M285.838 184.476C286.183 184.31 286.327 183.896 286.161 183.552C285.995 183.208 285.581 183.063 285.237 183.229C284.893 183.395 284.749 183.809 284.915 184.153C285.081 184.497 285.494 184.642 285.838 184.476Z" fill="#FFC107"/>
<path d="M338.755 222.104C339.099 221.938 339.244 221.524 339.078 221.18C338.912 220.836 338.498 220.691 338.154 220.857C337.81 221.023 337.665 221.437 337.831 221.781C337.997 222.126 338.411 222.27 338.755 222.104Z" fill="#FFC107"/>
<path d="M323.289 235.99C323.633 235.824 323.778 235.41 323.612 235.066C323.446 234.721 323.032 234.577 322.688 234.743C322.344 234.909 322.199 235.323 322.365 235.667C322.531 236.011 322.945 236.156 323.289 235.99Z" fill="#FFC107"/>
<path d="M73.5278 202.123C73.872 201.957 74.0164 201.543 73.8505 201.199C73.6845 200.855 73.2709 200.71 72.9267 200.876C72.5825 201.042 72.438 201.456 72.604 201.8C72.77 202.144 73.1835 202.289 73.5278 202.123Z" fill="#FFC107"/>
<path d="M270.335 113.393C270.68 113.227 270.824 112.813 270.658 112.469C270.492 112.125 270.079 111.98 269.734 112.146C269.39 112.312 269.246 112.726 269.412 113.07C269.578 113.414 269.991 113.559 270.335 113.393Z" fill="#FFC107"/>
<path d="M101.771 187.067C102.115 186.901 102.26 186.487 102.094 186.143C101.928 185.799 101.514 185.654 101.17 185.82C100.826 185.986 100.681 186.4 100.847 186.744C101.013 187.088 101.427 187.233 101.771 187.067Z" fill="#FFC107"/>
<path d="M318.084 393.373C318.428 393.207 318.573 392.793 318.407 392.449C318.241 392.105 317.827 391.961 317.483 392.127C317.139 392.293 316.994 392.706 317.16 393.05C317.326 393.395 317.74 393.539 318.084 393.373Z" fill="#FFC107"/>
<path d="M230.678 379.461C231.022 379.295 231.167 378.881 231.001 378.537C230.835 378.193 230.421 378.048 230.077 378.214C229.733 378.38 229.588 378.794 229.754 379.138C229.92 379.482 230.334 379.627 230.678 379.461Z" fill="#FFC107"/>
<path d="M105.035 317.408C105.379 317.242 105.524 316.829 105.358 316.485C105.192 316.14 104.778 315.996 104.434 316.162C104.09 316.328 103.945 316.741 104.111 317.086C104.277 317.43 104.691 317.574 105.035 317.408Z" fill="#FFC107"/>
<path d="M284.379 301.847C284.724 301.681 284.868 301.267 284.702 300.923C284.536 300.579 284.123 300.434 283.778 300.6C283.434 300.766 283.29 301.18 283.456 301.524C283.622 301.868 284.035 302.013 284.379 301.847Z" fill="#FFC107"/>
<path d="M239.005 159.954C239.349 159.788 239.493 159.375 239.328 159.03C239.162 158.686 238.748 158.542 238.404 158.708C238.06 158.873 237.915 159.287 238.081 159.631C238.247 159.976 238.661 160.12 239.005 159.954Z" fill="#FFC107"/>
<path d="M187.936 364.189C188.28 364.023 188.425 363.61 188.259 363.266C188.093 362.921 187.679 362.777 187.335 362.943C186.991 363.109 186.846 363.522 187.012 363.867C187.178 364.211 187.592 364.355 187.936 364.189Z" fill="#FFC107"/>
<path d="M101.229 199.377C101.573 199.211 101.717 198.797 101.551 198.453C101.385 198.109 100.972 197.964 100.628 198.13C100.283 198.296 100.139 198.71 100.305 199.054C100.471 199.398 100.884 199.543 101.229 199.377Z" fill="#FFC107"/>
<path d="M259.218 197.311C259.562 197.145 259.707 196.731 259.541 196.387C259.375 196.043 258.961 195.898 258.617 196.064C258.273 196.23 258.128 196.644 258.294 196.988C258.46 197.332 258.874 197.477 259.218 197.311Z" fill="#FFC107"/>
<path d="M149.109 258.377C149.454 258.211 149.598 257.798 149.432 257.453C149.266 257.109 148.852 256.965 148.508 257.131C148.164 257.297 148.02 257.71 148.186 258.054C148.351 258.399 148.765 258.543 149.109 258.377Z" fill="#FFC107"/>
<path d="M308.261 291.862C308.606 291.697 308.75 291.283 308.584 290.939C308.418 290.594 308.005 290.45 307.66 290.616C307.316 290.782 307.172 291.195 307.338 291.54C307.504 291.884 307.917 292.028 308.261 291.862Z" fill="#FFC107"/>
<path d="M182.86 396.228C183.204 396.062 183.349 395.648 183.183 395.304C183.017 394.959 182.603 394.815 182.259 394.981C181.915 395.147 181.77 395.561 181.936 395.905C182.102 396.249 182.516 396.394 182.86 396.228Z" fill="#FFC107"/>
<path d="M154.905 375.618C155.249 375.452 155.393 375.038 155.227 374.694C155.061 374.349 154.648 374.205 154.303 374.371C153.959 374.537 153.815 374.951 153.981 375.295C154.147 375.639 154.56 375.784 154.905 375.618Z" fill="#FFC107"/>
<path d="M134.704 239.043C135.048 238.877 135.193 238.463 135.027 238.119C134.861 237.775 134.447 237.63 134.103 237.796C133.759 237.962 133.615 238.376 133.781 238.72C133.946 239.064 134.36 239.209 134.704 239.043Z" fill="#FFC107"/>
<path d="M121.438 293.102C121.782 292.936 121.926 292.522 121.76 292.178C121.594 291.833 121.181 291.689 120.837 291.855C120.492 292.021 120.348 292.434 120.514 292.779C120.68 293.123 121.093 293.268 121.438 293.102Z" fill="#FFC107"/>
<path d="M280.015 217.41C280.359 217.244 280.503 216.831 280.337 216.487C280.171 216.142 279.758 215.998 279.414 216.164C279.069 216.33 278.925 216.743 279.091 217.088C279.257 217.432 279.67 217.576 280.015 217.41Z" fill="#FFC107"/>
<path d="M147.974 315.424C148.318 315.258 148.462 314.844 148.296 314.5C148.13 314.156 147.717 314.011 147.373 314.177C147.028 314.343 146.884 314.757 147.05 315.101C147.216 315.445 147.629 315.59 147.974 315.424Z" fill="#FFC107"/>
<path d="M62.8754 236.166C63.2196 236 63.3641 235.587 63.1981 235.242C63.0322 234.898 62.6186 234.754 62.2744 234.92C61.9301 235.086 61.7857 235.499 61.9517 235.843C62.1176 236.188 62.5312 236.332 62.8754 236.166Z" fill="#FFC107"/>
<path d="M244.904 427.894C245.248 427.728 245.393 427.315 245.227 426.971C245.061 426.626 244.647 426.482 244.303 426.648C243.959 426.814 243.814 427.227 243.98 427.572C244.146 427.916 244.56 428.06 244.904 427.894Z" fill="#FFC107"/>
<path d="M355.109 303.577C355.453 303.411 355.598 302.997 355.432 302.653C355.266 302.309 354.852 302.164 354.508 302.33C354.164 302.496 354.019 302.91 354.185 303.254C354.351 303.598 354.765 303.743 355.109 303.577Z" fill="#FFC107"/>
<path d="M261.593 413.84C261.938 413.674 262.082 413.261 261.916 412.916C261.75 412.572 261.337 412.428 260.992 412.594C260.648 412.76 260.504 413.173 260.67 413.517C260.836 413.862 261.249 414.006 261.593 413.84Z" fill="#FFC107"/>
<defs>
<linearGradient id="paint0_linear_2_313" x1="72.4583" y1="172.542" x2="230.151" y2="501.71" gradientUnits="userSpaceOnUse">
<stop offset="0.0642" stop-color="white"/>
<stop offset="0.1009" stop-color="#FFFDF7"/>
<stop offset="0.158" stop-color="#FFF8E1"/>
<stop offset="0.2282" stop-color="#FFEFBD"/>
<stop offset="0.3089" stop-color="#FFE28B"/>
<stop offset="0.3972" stop-color="#FFD24D"/>
<stop offset="0.4849" stop-color="#FFC107"/>
<stop offset="0.5005" stop-color="#FFC61A"/>
<stop offset="0.5531" stop-color="#FFD556"/>
<stop offset="0.6055" stop-color="#FFE28A"/>
<stop offset="0.6564" stop-color="#FFECB4"/>
<stop offset="0.7057" stop-color="#FFF4D5"/>
<stop offset="0.7527" stop-color="#FFFAEC"/>
<stop offset="0.7966" stop-color="#FFFEFA"/>
<stop offset="0.8343" stop-color="white"/>
</linearGradient>
<linearGradient id="paint1_linear_2_313" x1="98.1712" y1="154.941" x2="229.315" y2="428.691" gradientUnits="userSpaceOnUse">
<stop offset="0.0642" stop-color="white"/>
<stop offset="0.1009" stop-color="#FFFDF7"/>
<stop offset="0.158" stop-color="#FFF8E1"/>
<stop offset="0.2282" stop-color="#FFEFBD"/>
<stop offset="0.3089" stop-color="#FFE28B"/>
<stop offset="0.3972" stop-color="#FFD24D"/>
<stop offset="0.4849" stop-color="#FFC107"/>
<stop offset="0.5005" stop-color="#FFC61A"/>
<stop offset="0.5531" stop-color="#FFD556"/>
<stop offset="0.6055" stop-color="#FFE28A"/>
<stop offset="0.6564" stop-color="#FFECB4"/>
<stop offset="0.7057" stop-color="#FFF4D5"/>
<stop offset="0.7527" stop-color="#FFFAEC"/>
<stop offset="0.7966" stop-color="#FFFEFA"/>
<stop offset="0.8343" stop-color="white"/>
</linearGradient>
<linearGradient id="paint2_linear_2_313" x1="204.047" y1="102.513" x2="349.81" y2="406.779" gradientUnits="userSpaceOnUse">
<stop offset="0.0642" stop-color="white"/>
<stop offset="0.1009" stop-color="#FFFDF7"/>
<stop offset="0.158" stop-color="#FFF8E1"/>
<stop offset="0.2282" stop-color="#FFEFBD"/>
<stop offset="0.3089" stop-color="#FFE28B"/>
<stop offset="0.3972" stop-color="#FFD24D"/>
<stop offset="0.4849" stop-color="#FFC107"/>
<stop offset="0.5005" stop-color="#FFC61A"/>
<stop offset="0.5531" stop-color="#FFD556"/>
<stop offset="0.6055" stop-color="#FFE28A"/>
<stop offset="0.6564" stop-color="#FFECB4"/>
<stop offset="0.7057" stop-color="#FFF4D5"/>
<stop offset="0.7527" stop-color="#FFFAEC"/>
<stop offset="0.7966" stop-color="#FFFEFA"/>
<stop offset="0.8343" stop-color="white"/>
</linearGradient>
<linearGradient id="paint3_linear_2_313" x1="236.431" y1="98.4964" x2="390.392" y2="419.876" gradientUnits="userSpaceOnUse">
<stop offset="0.0642" stop-color="white"/>
<stop offset="0.1009" stop-color="#FFFDF7"/>
<stop offset="0.158" stop-color="#FFF8E1"/>
<stop offset="0.2282" stop-color="#FFEFBD"/>
<stop offset="0.3089" stop-color="#FFE28B"/>
<stop offset="0.3972" stop-color="#FFD24D"/>
<stop offset="0.4849" stop-color="#FFC107"/>
<stop offset="0.5005" stop-color="#FFC61A"/>
<stop offset="0.5531" stop-color="#FFD556"/>
<stop offset="0.6055" stop-color="#FFE28A"/>
<stop offset="0.6564" stop-color="#FFECB4"/>
<stop offset="0.7057" stop-color="#FFF4D5"/>
<stop offset="0.7527" stop-color="#FFFAEC"/>
<stop offset="0.7966" stop-color="#FFFEFA"/>
<stop offset="0.8343" stop-color="white"/>
</linearGradient>
<linearGradient id="paint4_linear_2_313" x1="161.112" y1="396.349" x2="241.34" y2="357.666" gradientUnits="userSpaceOnUse">
<stop stop-color="#3C5185"/>
<stop offset="1" stop-color="#5D7DBE"/>
</linearGradient>
<linearGradient id="paint5_linear_2_313" x1="280.204" y1="338.928" x2="360.431" y2="300.246" gradientUnits="userSpaceOnUse">
<stop stop-color="#3C5185"/>
<stop offset="1" stop-color="#5D7DBE"/>
</linearGradient>
<linearGradient id="paint6_linear_2_313" x1="155.797" y1="131.317" x2="125.478" y2="59.2079" gradientUnits="userSpaceOnUse">
<stop stop-color="#3C5185"/>
<stop offset="1" stop-color="#5D7DBE"/>
</linearGradient>
<linearGradient id="paint7_linear_2_313" x1="78.5497" y1="268.666" x2="313.602" y2="155.334" gradientUnits="userSpaceOnUse">
<stop offset="0.1445" stop-color="#FF9800"/>
<stop offset="0.73" stop-color="#F6CF2E"/>
</linearGradient>
<linearGradient id="paint8_linear_2_313" x1="75.3906" y1="269.848" x2="86.7445" y2="273.815" gradientUnits="userSpaceOnUse">
<stop stop-color="#FFC107"/>
<stop offset="0.8501" stop-color="#FF9800"/>
</linearGradient>
<linearGradient id="paint9_linear_2_313" x1="138.093" y1="283.321" x2="146.624" y2="286.302" gradientUnits="userSpaceOnUse">
<stop stop-color="#FFC107"/>
<stop offset="0.8501" stop-color="#FF9800"/>
</linearGradient>
<linearGradient id="paint10_linear_2_313" x1="242.907" y1="245.814" x2="248.436" y2="247.746" gradientUnits="userSpaceOnUse">
<stop stop-color="#FFC107"/>
<stop offset="0.8501" stop-color="#FF9800"/>
</linearGradient>
<linearGradient id="paint11_linear_2_313" x1="80.6634" y1="216.922" x2="271.099" y2="125.102" gradientUnits="userSpaceOnUse">
<stop offset="0.1445" stop-color="#FF9800"/>
<stop offset="0.73" stop-color="#F6CF2E"/>
</linearGradient>
<linearGradient id="paint12_linear_2_313" x1="125.543" y1="228.337" x2="134.733" y2="231.548" gradientUnits="userSpaceOnUse">
<stop stop-color="#FFC107"/>
<stop offset="0.8501" stop-color="#FF9800"/>
</linearGradient>
<linearGradient id="paint13_linear_2_313" x1="220.224" y1="192.901" x2="227.131" y2="195.314" gradientUnits="userSpaceOnUse">
<stop stop-color="#FFC107"/>
<stop offset="0.8501" stop-color="#FF9800"/>
</linearGradient>
<linearGradient id="paint14_linear_2_313" x1="265.085" y1="146.918" x2="269.558" y2="148.481" gradientUnits="userSpaceOnUse">
<stop stop-color="#FFC107"/>
<stop offset="0.8501" stop-color="#FF9800"/>
</linearGradient>
</defs>
</svg>
