<svg width="1887" height="1444" viewBox="0 0 1887 1444" fill="none" xmlns="http://www.w3.org/2000/svg">
<path fill-rule="evenodd" clip-rule="evenodd" d="M1679.39 1124.15C1647.73 1170.85 1727.79 1248.05 1631.5 1285C1532.64 1322.94 1328.81 1288.58 1195.93 1309.67C1095.06 1325.69 1018.05 1354.42 917.697 1370.89C778.155 1393.8 638.324 1431.08 493.191 1425.04C344.267 1418.85 209.169 1384.44 148.64 1338.91C89.0345 1294.08 122.063 1236.86 176.837 1187.11C223.225 1144.99 392.962 1126.09 430.193 1083.22C483.749 1021.55 276.647 940.72 426.769 899.325C570.685 859.64 733.379 940.951 900.211 953.613C1002.5 961.377 1106.43 960.982 1214.03 959.077C1419.72 955.434 1686.45 889.37 1821.56 937.296C1944.36 980.854 1722.52 1060.54 1679.39 1124.15Z" fill="#3E93E9"/>
<path fill-rule="evenodd" clip-rule="evenodd" d="M962.086 775.222C1125.61 721.306 1180.16 600.415 1362.75 573.041C1509.39 551.055 1633.85 595.333 1690.5 649C1745.47 701.078 1672.02 790.433 1659.6 854.264C1649 908.727 1659.76 960.893 1616.8 1015.57C1570.75 1074.18 1524.95 1144.52 1404.16 1179.38C1280.62 1215.03 1141.83 1195.88 1016.4 1188.83C925.23 1183.7 874.323 1140.23 778.157 1144.18C611.525 1151.02 429.541 1240.58 283.929 1218.89C157.519 1200.07 119.996 1117.64 156.671 1051.62C193.921 984.558 356.38 938.041 469.979 883.96C544.636 848.418 615.068 809.29 709.523 788.419C793.019 769.97 885.179 800.58 962.086 775.222Z" fill="#2F8FEF"/>
<path fill-rule="evenodd" clip-rule="evenodd" d="M921.141 328.785C1060.61 278.291 1213.87 226.659 1326.8 224.063C1435.97 221.554 1481.54 267.382 1507.71 315.303C1528.27 352.949 1412.29 438.397 1457.9 464.112C1534.95 507.556 1832.8 421.564 1832.41 498.372C1832.1 560.916 1577.83 638.651 1456.64 714.042C1347.81 781.749 1286.26 883.813 1156.62 918.786C1009.79 958.396 1013.18 844.063 871.883 871.792C714.824 902.616 545.704 1043.89 392.6 1068.73C248.44 1092.12 142.133 1055.96 138.171 990.835C134.175 925.126 121.453 677.91 186.016 595.176C246.316 517.906 341.332 574.649 446.022 495.794C551.556 416.304 773.782 382.137 921.141 328.785Z" fill="#0A84FF"/>
</svg>
